<?xml version="1.0" encoding="utf-8"?>
<svg xmlns="http://www.w3.org/2000/svg">

<!--Frontend-->
<symbol id="html" viewBox="0 0 300 300">
  <path fill="#e34f26" d="M50 264 28 13h246l-22 251-101 28" />
  <path fill="#ef652a" d="m151 270 82-22 19-215H151" />
  <path fill="#ebebeb" d="M151 126h-41l-2-31h43V64H74v8l8 85h69zm0 80-35-9-2-24H84l3 48 64 18z" />
  <path fill="#fff" d="M151 126v31h38l-4 40-34 9v33l63-18 1-5 7-82 1-8h-9zm0-62v31h74l1-7 2-16v-8z" />
</symbol>
<symbol id="css" viewBox="0 0 300 300">
  <path fill="#1572b6" d="M50 263 28 13h245l-22 250-101 28zm0 0" />
  <path fill="#33a9dc" d="m150 270 82-23 19-214H150zm0 0" />
  <path fill="#fff" d="M150 124h41l3-31h-44V62h78l-1 8-8 85h-69zm0 0" />
  <path fill="#ebebeb" d="m151 204-35-9-2-25H83l5 48 63 18zm0 0" />
  <path fill="#fff" d="m189 153-4 42-34 9v32l63-18v-5l5-60zm0 0" />
  <path fill="#ebebeb" d="M151 62v31H76v-7l-2-16v-8zm-1 62v31h-33l-1-7-1-16-1-8zm0 0" />
</symbol>
<symbol id="js" viewBox="0 0 128 128">
  <path fill="#f0db4f" d="M13 13h99v100H13z" />
  <path fill="#323330"
    d="M104 89c-1-4-3-8-12-12-3-1-7-2-8-5v-3c1-2 4-3 6-2a7 7 0 0 1 4 3l8-4a19 19 0 0 0-3-3c-2-3-6-5-11-5l-3 1c-3 0-6 2-7 4a13 13 0 0 0 2 19c6 4 14 5 15 9 1 5-4 6-8 6-3-1-5-3-7-6l-8 4 3 5c8 7 26 7 29-4v-7zM67 59h-9v24l-1 11c-1 3-5 3-7 2a8 8 0 0 1-3-3l-1-1-7 5a15 15 0 0 0 5 6c4 2 9 3 14 2 3-1 6-3 7-6 2-4 2-9 2-14V59z" />
</symbol>

<!--Backend-->

<symbol id="nodejs" viewBox="0 0 300 300">
  <svg viewBox="-13 0 282 282" xmlns="http://www.w3.org/2000/svg" preserveAspectRatio="xMinYMin meet" fill="#000000"><g id="SVGRepo_bgCarrier" stroke-width="0"></g><g id="SVGRepo_tracerCarrier" stroke-linecap="round" stroke-linejoin="round"></g><g id="SVGRepo_iconCarrier"> <g fill="#8CC84B"> <path d="M116.504 3.58c6.962-3.985 16.03-4.003 22.986 0 34.995 19.774 70.001 39.517 104.99 59.303 6.581 3.707 10.983 11.031 10.916 18.614v118.968c.049 7.897-4.788 15.396-11.731 19.019-34.88 19.665-69.742 39.354-104.616 59.019-7.106 4.063-16.356 3.75-23.24-.646-10.457-6.062-20.932-12.094-31.39-18.15-2.137-1.274-4.546-2.288-6.055-4.36 1.334-1.798 3.719-2.022 5.657-2.807 4.365-1.388 8.374-3.616 12.384-5.778 1.014-.694 2.252-.428 3.224.193 8.942 5.127 17.805 10.403 26.777 15.481 1.914 1.105 3.852-.362 5.488-1.274 34.228-19.345 68.498-38.617 102.72-57.968 1.268-.61 1.969-1.956 1.866-3.345.024-39.245.006-78.497.012-117.742.145-1.576-.767-3.025-2.192-3.67-34.759-19.575-69.5-39.18-104.253-58.76a3.621 3.621 0 0 0-4.094-.006C91.2 39.257 56.465 58.88 21.712 78.454c-1.42.646-2.373 2.071-2.204 3.653.006 39.245 0 78.497 0 117.748a3.329 3.329 0 0 0 1.89 3.303c9.274 5.259 18.56 10.481 27.84 15.722 5.228 2.814 11.647 4.486 17.407 2.33 5.083-1.823 8.646-7.01 8.549-12.407.048-39.016-.024-78.038.036-117.048-.127-1.732 1.516-3.163 3.2-3 4.456-.03 8.918-.06 13.374.012 1.86-.042 3.14 1.823 2.91 3.568-.018 39.263.048 78.527-.03 117.79.012 10.464-4.287 21.85-13.966 26.97-11.924 6.177-26.662 4.867-38.442-1.056-10.198-5.09-19.93-11.097-29.947-16.55C5.368 215.886.555 208.357.604 200.466V81.497c-.073-7.74 4.504-15.197 11.29-18.85C46.768 42.966 81.636 23.27 116.504 3.58z"></path> <path d="M146.928 85.99c15.21-.979 31.493-.58 45.18 6.913 10.597 5.742 16.472 17.793 16.659 29.566-.296 1.588-1.956 2.464-3.472 2.355-4.413-.006-8.827.06-13.24-.03-1.872.072-2.96-1.654-3.195-3.309-1.268-5.633-4.34-11.212-9.642-13.929-8.139-4.075-17.576-3.87-26.451-3.785-6.479.344-13.446.905-18.935 4.715-4.214 2.886-5.494 8.712-3.99 13.404 1.418 3.369 5.307 4.456 8.489 5.458 18.33 4.794 37.754 4.317 55.734 10.626 7.444 2.572 14.726 7.572 17.274 15.366 3.333 10.446 1.872 22.932-5.56 31.318-6.027 6.901-14.805 10.657-23.56 12.697-11.647 2.597-23.734 2.663-35.562 1.51-11.122-1.268-22.696-4.19-31.282-11.768-7.342-6.375-10.928-16.308-10.572-25.895.085-1.619 1.697-2.748 3.248-2.615 4.444-.036 8.888-.048 13.332.006 1.775-.127 3.091 1.407 3.182 3.08.82 5.367 2.837 11 7.517 14.182 9.032 5.827 20.365 5.428 30.707 5.591 8.568-.38 18.186-.495 25.178-6.158 3.689-3.23 4.782-8.634 3.785-13.283-1.08-3.925-5.186-5.754-8.712-6.95-18.095-5.724-37.736-3.647-55.656-10.12-7.275-2.571-14.31-7.432-17.105-14.906-3.9-10.578-2.113-23.662 6.098-31.765 8.006-8.06 19.563-11.164 30.551-12.275z"></path> </g> </g></svg>
</symbol>
<symbol id="java" >
  <svg viewBox="-45 0 346 346" version="1.1" xmlns="http://www.w3.org/2000/svg" xmlns:xlink="http://www.w3.org/1999/xlink" preserveAspectRatio="xMidYMid" fill="#000000"><g id="SVGRepo_bgCarrier" stroke-width="0"></g><g id="SVGRepo_tracerCarrier" stroke-linecap="round" stroke-linejoin="round"></g><g id="SVGRepo_iconCarrier"> <g> <path d="M82.5539491,267.472524 C82.5539491,267.472524 69.35552,275.147869 91.9468218,277.745105 C119.315549,280.867375 133.303389,280.419607 163.463913,274.711273 C163.463913,274.711273 171.393396,279.683258 182.467491,283.989644 C114.855564,312.966982 29.4483782,282.311215 82.5539491,267.472524" fill="#5382A1"> </path> <path d="M74.2921309,229.658996 C74.2921309,229.658996 59.4888145,240.616727 82.0968727,242.955171 C111.333004,245.971316 134.421411,246.218007 174.373236,238.524975 C174.373236,238.524975 179.899113,244.127185 188.588218,247.190807 C106.841367,271.094691 15.79008,249.075898 74.2921309,229.658996" fill="#5382A1"> </path> <path d="M143.941818,165.514705 C160.601367,184.695156 139.564684,201.955142 139.564684,201.955142 C139.564684,201.955142 181.866124,180.117876 162.438982,152.772422 C144.294633,127.271098 130.380335,114.600495 205.706705,70.9138618 C205.706705,70.9138618 87.4691491,100.44416 143.941818,165.514705" fill="#E76F00"> </path> <path d="M233.364015,295.441687 C233.364015,295.441687 243.131113,303.489396 222.60736,309.715316 C183.580858,321.537862 60.1748945,325.107898 25.8932364,310.186356 C13.5698618,304.825251 36.67968,297.385425 43.9491491,295.824291 C51.5304727,294.180305 55.8629236,294.486575 55.8629236,294.486575 C42.15808,284.832116 -32.7195927,313.443607 17.8287709,321.637469 C155.681513,343.993251 269.121164,311.570618 233.364015,295.441687" fill="#5382A1"> </path> <path d="M88.9008873,190.479825 C88.9008873,190.479825 26.1287564,205.389265 66.6717091,210.803433 C83.7901964,213.095331 117.915462,212.576815 149.702284,209.913484 C175.680233,207.722124 201.765236,203.062924 201.765236,203.062924 C201.765236,203.062924 192.605091,206.985775 185.977949,211.510924 C122.233949,228.275665 -0.907636364,220.476509 34.5432436,203.328233 C64.5241018,188.83584 88.9008873,190.479825 88.9008873,190.479825" fill="#5382A1"> </path> <path d="M201.506444,253.422313 C266.305164,219.7504 236.344785,187.392 215.432844,191.751447 C210.307258,192.818269 208.021876,193.742662 208.021876,193.742662 C208.021876,193.742662 209.924655,190.761891 213.558924,189.471651 C254.929455,174.927127 286.746065,232.368873 200.204102,255.11936 C200.204102,255.120291 201.206691,254.223825 201.506444,253.422313" fill="#5382A1"> </path> <path d="M162.438982,0.371432727 C162.438982,0.371432727 198.325527,36.27008 128.402153,91.4720582 C72.3307055,135.753542 115.616116,161.001658 128.37888,189.848669 C95.6490473,160.318371 71.6297309,134.322735 87.7437673,110.128407 C111.395375,74.6132945 176.918342,57.3942691 162.438982,0.371432727" fill="#E76F00"> </path> <path d="M95.2683055,344.665367 C157.466996,348.646865 252.980131,342.45632 255.24224,313.025629 C255.24224,313.025629 250.893964,324.182575 203.838371,333.042967 C150.750487,343.033484 85.2740655,341.867055 46.4393309,335.464262 C46.4402618,335.463331 54.3892945,342.043927 95.2683055,344.665367" fill="#5382A1"> </path> </g> </g></svg>
</symbol>
<symbol id="python">
  <svg xmlns="http://www.w3.org/2000/svg" xmlns:xlink="http://www.w3.org/1999/xlink" aria-label="Python" role="img" viewBox="0 0 512 512" fill="#000000"><g id="SVGRepo_bgCarrier" stroke-width="0"></g><g id="SVGRepo_tracerCarrier" stroke-linecap="round" stroke-linejoin="round"></g><g id="SVGRepo_iconCarrier"> <rect width="512" height="512" rx="15%" fill="#000"></rect> <g fill="#5a9fd4"> <path id="p" d="M254 64c-16 0-31 1-44 4-39 7-46 21-46 47v35h92v12H130c-27 0-50 16-58 46-8 35-8 57 0 93 7 28 23 47 49 47h32v-42c0-30 26-57 57-57h91c26 0 46-21 46-46v-88c0-24-21-43-46-47-15-3-32-4-47-4zm-50 28c10 0 17 8 17 18 0 9-7 17-17 17-9 0-17-8-17-17 0-10 8-18 17-18z"></path> </g> <use xlink:href="#p" fill="#ffd43b" transform="rotate(180,256,255)"></use> </g></svg>
</symbol>
<symbol id="php" viewBox="0 0 300 300">
  <svg viewBox="0 0 32 32" xmlns="http://www.w3.org/2000/svg" fill="#000000"><g id="SVGRepo_bgCarrier" stroke-width="0"></g><g id="SVGRepo_tracerCarrier" stroke-linecap="round" stroke-linejoin="round"></g><g id="SVGRepo_iconCarrier"><title>file_type_php3</title><path d="M7.6,13.791a2.352,2.352,0,0,1,1.745.483,1.916,1.916,0,0,1,.207,1.66,2.78,2.78,0,0,1-.918,1.748,3.375,3.375,0,0,1-2.07.529h-1.4L6.024,13.8ZM2,22.677H4.3l.545-2.8H6.812A7.049,7.049,0,0,0,8.956,19.6a4.06,4.06,0,0,0,1.53-.918A4.585,4.585,0,0,0,11.93,16.1a3.288,3.288,0,0,0-.55-2.922A3.671,3.671,0,0,0,8.47,12.129H4.057Z" style="fill:#8993be"></path><path d="M13.617,9.323H15.9l-.553,2.8h2.031a3.956,3.956,0,0,1,2.645.669,2.213,2.213,0,0,1,.436,2.167l-.954,4.909H17.195l.908-4.667a1.267,1.267,0,0,0-.114-1.086,1.6,1.6,0,0,0-1.144-.286H15.022l-1.175,6.044H11.559Z" style="fill:#8993be"></path><path d="M25.539,13.791a2.352,2.352,0,0,1,1.745.483,1.916,1.916,0,0,1,.207,1.66,2.78,2.78,0,0,1-.918,1.748,3.375,3.375,0,0,1-2.074.529H23.1l.858-4.416Zm-5.6,8.886h2.3l.545-2.8h1.968A7.049,7.049,0,0,0,26.9,19.6a4.06,4.06,0,0,0,1.53-.918A4.585,4.585,0,0,0,29.869,16.1a3.288,3.288,0,0,0-.55-2.922,3.671,3.671,0,0,0-2.909-1.046h-4.42Z" style="fill:#8993be"></path></g></svg>
</symbol>

<!--Frameworks frontend-->
<symbol id="react" viewBox="0 0 300 300">
  <svg viewBox="0 -14 256 256" version="1.1" xmlns="http://www.w3.org/2000/svg" xmlns:xlink="http://www.w3.org/1999/xlink" preserveAspectRatio="xMidYMid" fill="#000000"><g id="SVGRepo_bgCarrier" stroke-width="0"></g><g id="SVGRepo_tracerCarrier" stroke-linecap="round" stroke-linejoin="round"></g><g id="SVGRepo_iconCarrier"> <g> <path d="M210.483381,73.8236374 C207.827698,72.9095503 205.075867,72.0446761 202.24247,71.2267368 C202.708172,69.3261098 203.135596,67.4500894 203.515631,65.6059664 C209.753843,35.3248922 205.675082,10.9302478 191.747328,2.89849283 C178.392359,-4.80289661 156.551327,3.22703567 134.492936,22.4237776 C132.371761,24.2697233 130.244662,26.2241201 128.118477,28.2723861 C126.701777,26.917204 125.287358,25.6075897 123.876584,24.3549348 C100.758745,3.82852863 77.5866802,-4.82157937 63.6725966,3.23341515 C50.3303869,10.9571328 46.3792156,33.8904224 51.9945178,62.5880206 C52.5367729,65.3599011 53.1706189,68.1905639 53.8873982,71.068617 C50.6078941,71.9995641 47.4418534,72.9920277 44.4125156,74.0478303 C17.3093297,83.497195 0,98.3066828 0,113.667995 C0,129.533287 18.5815786,145.446423 46.8116526,155.095373 C49.0394553,155.856809 51.3511025,156.576778 53.7333796,157.260293 C52.9600965,160.37302 52.2875179,163.423318 51.7229345,166.398431 C46.3687351,194.597975 50.5500231,216.989464 63.8566899,224.664425 C77.6012619,232.590464 100.66852,224.443422 123.130185,204.809231 C124.905501,203.257196 126.687196,201.611293 128.472081,199.886102 C130.785552,202.113904 133.095375,204.222319 135.392897,206.199955 C157.14963,224.922338 178.637969,232.482469 191.932332,224.786092 C205.663234,216.837268 210.125675,192.78347 204.332202,163.5181 C203.88974,161.283006 203.374826,158.99961 202.796573,156.675661 C204.416503,156.196743 206.006814,155.702335 207.557482,155.188332 C236.905331,145.46465 256,129.745175 256,113.667995 C256,98.2510906 238.132466,83.3418093 210.483381,73.8236374 L210.483381,73.8236374 Z M204.118035,144.807565 C202.718197,145.270987 201.281904,145.718918 199.818271,146.153177 C196.578411,135.896354 192.205739,124.989735 186.854729,113.72131 C191.961041,102.721277 196.164656,91.9540963 199.313837,81.7638014 C201.93261,82.5215915 204.474374,83.3208483 206.923636,84.1643056 C230.613348,92.3195488 245.063763,104.377206 245.063763,113.667995 C245.063763,123.564379 229.457753,136.411268 204.118035,144.807565 L204.118035,144.807565 Z M193.603754,165.642007 C196.165567,178.582766 196.531475,190.282717 194.834536,199.429057 C193.309843,207.64764 190.243595,213.12715 186.452366,215.321689 C178.384612,219.991462 161.131788,213.921395 142.525146,197.909832 C140.392124,196.074366 138.243609,194.114502 136.088259,192.040261 C143.301619,184.151133 150.510878,174.979732 157.54698,164.793993 C169.922699,163.695814 181.614905,161.900447 192.218042,159.449363 C192.740247,161.555956 193.204126,163.621993 193.603754,165.642007 L193.603754,165.642007 Z M87.2761866,214.514686 C79.3938934,217.298414 73.1160375,217.378157 69.3211631,215.189998 C61.2461189,210.532528 57.8891498,192.554265 62.4682434,168.438039 C62.9927272,165.676183 63.6170041,162.839142 64.3365173,159.939216 C74.8234575,162.258154 86.4299951,163.926841 98.8353334,164.932519 C105.918826,174.899534 113.336329,184.06091 120.811247,192.08264 C119.178102,193.65928 117.551336,195.16028 115.933685,196.574699 C106.001303,205.256705 96.0479605,211.41654 87.2761866,214.514686 L87.2761866,214.514686 Z M50.3486141,144.746959 C37.8658105,140.48046 27.5570398,134.935332 20.4908634,128.884403 C14.1414664,123.446815 10.9357817,118.048415 10.9357817,113.667995 C10.9357817,104.34622 24.8334611,92.4562517 48.0123604,84.3748281 C50.8247961,83.3942121 53.7689223,82.4701001 56.8242337,81.6020363 C60.0276398,92.0224477 64.229889,102.917218 69.3011135,113.93411 C64.1642716,125.11459 59.9023288,136.182975 56.6674809,146.725506 C54.489347,146.099407 52.3791089,145.440499 50.3486141,144.746959 L50.3486141,144.746959 Z M62.7270678,60.4878073 C57.9160346,35.9004118 61.1112387,17.3525532 69.1516515,12.6982729 C77.7160924,7.74005624 96.6544653,14.8094222 116.614922,32.5329619 C117.890816,33.6657739 119.171723,34.8514442 120.456275,36.0781256 C113.018267,44.0647686 105.66866,53.1573386 98.6480514,63.0655695 C86.6081646,64.1815215 75.0831931,65.9741531 64.4868907,68.3746571 C63.8206914,65.6948233 63.2305903,63.0619242 62.7270678,60.4878073 L62.7270678,60.4878073 Z M173.153901,87.7550367 C170.620796,83.3796304 168.020249,79.1076627 165.369124,74.9523483 C173.537126,75.9849113 181.362914,77.3555864 188.712066,79.0329319 C186.505679,86.1041206 183.755673,93.4974728 180.518546,101.076741 C178.196419,96.6680702 175.740322,92.2229454 173.153901,87.7550367 L173.153901,87.7550367 Z M128.122121,43.8938899 C133.166461,49.3588189 138.218091,55.4603279 143.186789,62.0803968 C138.179814,61.8439007 133.110868,61.720868 128.000001,61.720868 C122.937434,61.720868 117.905854,61.8411667 112.929865,62.0735617 C117.903575,55.515009 122.99895,49.4217021 128.122121,43.8938899 L128.122121,43.8938899 Z M82.8018984,87.830679 C80.2715265,92.2183886 77.8609975,96.6393627 75.5753239,101.068539 C72.3906004,93.5156998 69.6661103,86.0886276 67.440586,78.9171899 C74.7446255,77.2826781 82.5335049,75.9461789 90.6495601,74.9332099 C87.9610684,79.1268011 85.3391054,83.4302106 82.8018984,87.8297677 L82.8018984,87.830679 L82.8018984,87.830679 Z M90.8833221,153.182899 C82.4979621,152.247395 74.5919739,150.979704 67.289757,149.390303 C69.5508242,142.09082 72.3354636,134.505173 75.5876271,126.789657 C77.8792246,131.215644 80.2993228,135.638441 82.8451877,140.03572 L82.8456433,140.03572 C85.4388987,144.515476 88.1255676,148.90364 90.8833221,153.182899 L90.8833221,153.182899 Z M128.424691,184.213105 C123.24137,178.620587 118.071264,172.434323 113.021912,165.780078 C117.923624,165.972373 122.921029,166.0708 128.000001,166.0708 C133.217953,166.0708 138.376211,165.953235 143.45336,165.727219 C138.468257,172.501308 133.434855,178.697141 128.424691,184.213105 L128.424691,184.213105 Z M180.622896,126.396409 C184.044571,134.195313 186.929004,141.741317 189.219234,148.9164 C181.796719,150.609693 173.782736,151.973534 165.339049,152.986959 C167.996555,148.775595 170.619884,144.430263 173.197646,139.960532 C175.805484,135.438399 178.28163,130.90943 180.622896,126.396409 L180.622896,126.396409 Z M163.724586,134.496971 C159.722835,141.435557 155.614455,148.059271 151.443648,154.311611 C143.847063,154.854776 135.998946,155.134562 128.000001,155.134562 C120.033408,155.134562 112.284171,154.887129 104.822013,154.402745 C100.48306,148.068386 96.285368,141.425078 92.3091341,134.556664 L92.3100455,134.556664 C88.3442923,127.706935 84.6943232,120.799333 81.3870228,113.930466 C84.6934118,107.045648 88.3338117,100.130301 92.276781,93.292874 L92.2758697,93.294241 C96.2293193,86.4385872 100.390102,79.8276317 104.688954,73.5329157 C112.302398,72.9573964 120.109505,72.6571055 127.999545,72.6571055 L128.000001,72.6571055 C135.925583,72.6571055 143.742714,72.9596746 151.353879,73.5402067 C155.587114,79.7888993 159.719645,86.3784378 163.688588,93.2350031 C167.702644,100.168578 171.389978,107.037901 174.724618,113.77508 C171.400003,120.627999 167.720871,127.566587 163.724586,134.496971 L163.724586,134.496971 Z M186.284677,12.3729198 C194.857321,17.3165548 198.191049,37.2542268 192.804953,63.3986692 C192.461372,65.0669011 192.074504,66.7661189 191.654369,68.4881206 C181.03346,66.0374921 169.500286,64.2138746 157.425315,63.0810626 C150.391035,53.0639249 143.101577,43.9572289 135.784778,36.073113 C137.751934,34.1806885 139.716356,32.3762092 141.672575,30.673346 C160.572216,14.2257007 178.236518,7.73185406 186.284677,12.3729198 L186.284677,12.3729198 Z M128.000001,90.8080696 C140.624975,90.8080696 150.859926,101.042565 150.859926,113.667995 C150.859926,126.292969 140.624975,136.527922 128.000001,136.527922 C115.375026,136.527922 105.140075,126.292969 105.140075,113.667995 C105.140075,101.042565 115.375026,90.8080696 128.000001,90.8080696 L128.000001,90.8080696 Z" fill="#00D8FF"> </path> </g> </g></svg>
</symbol>
<symbol id="angular" viewBox="0 0 300 300">
  <svg viewBox="0 0 32 32" fill="none" xmlns="http://www.w3.org/2000/svg"><g id="SVGRepo_bgCarrier" stroke-width="0"></g><g id="SVGRepo_tracerCarrier" stroke-linecap="round" stroke-linejoin="round"></g><g id="SVGRepo_iconCarrier"> <path d="M16 2L3 7L5 24L16 30L27 24L29 7L16 2Z" fill="#DD0031"></path> <path d="M16 2V30L27 24L29 7L16 2Z" fill="#C3002F"></path> <path d="M15.9998 5.09375L7.87305 23.3638H10.9031L12.5368 19.2757H19.4348L21.0685 23.3638H24.0986L15.9998 5.09375ZM18.3736 16.7557H13.626L15.9998 11.0298L18.3736 16.7557Z" fill="white"></path> </g></svg>
</symbol>
<symbol id="vuejs" viewBox="0 0 512 512">
  <path fill="#41b883" d="m310 17-57 99-57-99H7l246 426L498 17z" />
  <path fill="#34495e" d="m310 17-57 99-57-99h-91l148 257L400 17z" />
</symbol>
<symbol id="bootstrap" viewBox="0 0 300 300">
  <svg viewBox="0 0 256 256" version="1.1" xmlns="http://www.w3.org/2000/svg" xmlns:xlink="http://www.w3.org/1999/xlink" preserveAspectRatio="xMidYMid" fill="#000000"><g id="SVGRepo_bgCarrier" stroke-width="0"></g><g id="SVGRepo_tracerCarrier" stroke-linecap="round" stroke-linejoin="round"></g><g id="SVGRepo_iconCarrier"> <g> <path d="M0,222.991225 C0,241.223474 14.7785318,256 33.0087747,256 L222.991225,256 C241.223474,256 256,241.221468 256,222.991225 L256,33.0087747 C256,14.7765263 241.221468,0 222.991225,0 L33.0087747,0 C14.7765263,0 0,14.7785318 0,33.0087747 L0,222.991225 Z" fill="#563D7C"> </path> <path d="M106.157563,113.238095 L106.157563,76.9845938 L138.069328,76.9845938 C141.108559,76.9845938 144.039202,77.2378593 146.861345,77.7443978 C149.683488,78.2509362 152.179961,79.1554557 154.35084,80.4579832 C156.52172,81.7605107 158.258397,83.5695496 159.560924,85.8851541 C160.863452,88.2007585 161.514706,91.1675823 161.514706,94.7857143 C161.514706,101.298352 159.560944,106.001853 155.653361,108.896359 C151.745779,111.790864 146.752832,113.238095 140.67437,113.238095 L106.157563,113.238095 L106.157563,113.238095 Z M72.07493,50.5 L72.07493,205.5 L147.186975,205.5 C154.133788,205.5 160.899594,204.631661 167.484594,202.894958 C174.069594,201.158255 179.93088,198.480877 185.068627,194.862745 C190.206375,191.244613 194.294803,186.577293 197.334034,180.860644 C200.373264,175.143996 201.892857,168.37819 201.892857,160.563025 C201.892857,150.866431 199.541107,142.581033 194.837535,135.706583 C190.133963,128.832132 183.00635,124.020088 173.454482,121.270308 C180.401295,117.941627 185.647508,113.672295 189.193277,108.462185 C192.739047,103.252075 194.511905,96.7395349 194.511905,88.9243697 C194.511905,81.6881057 193.317939,75.6097352 190.929972,70.6890756 C188.542005,65.7684161 185.177193,61.8247114 180.835434,58.8578431 C176.493676,55.8909749 171.283644,53.756309 165.205182,52.4537815 C159.12672,51.151254 152.397096,50.5 145.016106,50.5 L72.07493,50.5 L72.07493,50.5 Z M106.157563,179.015406 L106.157563,136.466387 L143.279412,136.466387 C150.660401,136.466387 156.594049,138.166883 161.080532,141.567927 C165.567016,144.968971 167.810224,150.649353 167.810224,158.609244 C167.810224,162.661552 167.122789,165.990183 165.747899,168.595238 C164.373009,171.200293 162.527789,173.262597 160.212185,174.782213 C157.89658,176.301828 155.219203,177.387252 152.179972,178.038515 C149.140741,178.689779 145.956833,179.015406 142.628151,179.015406 L106.157563,179.015406 L106.157563,179.015406 Z" fill="#FFFFFF"> </path> </g> </g></svg>
</symbol>

<!--frameworks backend-->
<symbol id="laravel" viewBox="0 0 300 300">
  <svg viewBox="-4 0 264 264" version="1.1" xmlns="http://www.w3.org/2000/svg" xmlns:xlink="http://www.w3.org/1999/xlink" preserveAspectRatio="xMidYMid" fill="#000000"><g id="SVGRepo_bgCarrier" stroke-width="0"></g><g id="SVGRepo_tracerCarrier" stroke-linecap="round" stroke-linejoin="round"></g><g id="SVGRepo_iconCarrier"> <g> <path d="M255.855641,59.619717 C255.950565,59.9710596 256,60.3333149 256,60.6972536 L256,117.265345 C256,118.743206 255.209409,120.108149 253.927418,120.843385 L206.448786,148.178786 L206.448786,202.359798 C206.448786,203.834322 205.665123,205.195421 204.386515,205.937838 L105.27893,262.990563 C105.05208,263.119455 104.804608,263.201946 104.557135,263.289593 C104.464333,263.320527 104.376687,263.377239 104.278729,263.403017 C103.585929,263.58546 102.857701,263.58546 102.164901,263.403017 C102.051476,263.372083 101.948363,263.310215 101.840093,263.26897 C101.613244,263.186479 101.376082,263.1143 101.159544,262.990563 L2.07258227,205.937838 C0.7913718,205.201819 0,203.837372 0,202.359798 L0,32.6555248 C0,32.2843161 0.0515567729,31.9234187 0.144358964,31.5728326 C0.175293028,31.454252 0.24747251,31.3459828 0.288717928,31.2274022 C0.366053087,31.0108638 0.438232569,30.7891697 0.55165747,30.5880982 C0.628992629,30.4540506 0.742417529,30.3457814 0.83521972,30.2220451 C0.953800298,30.0570635 1.06206952,29.8869261 1.20127281,29.7425672 C1.31985339,29.6239866 1.4745237,29.5363401 1.60857131,29.4332265 C1.75808595,29.3094903 1.89213356,29.1754427 2.06227091,29.0774848 L2.06742659,29.0774848 L51.6134853,0.551122364 C52.8901903,-0.183535768 54.4613221,-0.183535768 55.7380271,0.551122364 L105.284086,29.0774848 L105.294397,29.0774848 C105.459379,29.1805983 105.598582,29.3094903 105.748097,29.4280708 C105.882144,29.5311844 106.031659,29.6239866 106.15024,29.7374115 C106.294599,29.8869261 106.397712,30.0570635 106.521448,30.2220451 C106.609095,30.3457814 106.727676,30.4540506 106.799855,30.5880982 C106.918436,30.7943253 106.985459,31.0108638 107.06795,31.2274022 C107.109196,31.3459828 107.181375,31.454252 107.212309,31.5779883 C107.307234,31.9293308 107.355765,32.2915861 107.356668,32.6555248 L107.356668,138.651094 L148.643332,114.878266 L148.643332,60.6920979 C148.643332,60.3312005 148.694889,59.9651474 148.787691,59.619717 C148.823781,59.4959808 148.890804,59.3877116 148.93205,59.269131 C149.014541,59.0525925 149.08672,58.8308984 149.200145,58.629827 C149.27748,58.4957794 149.390905,58.3875102 149.478552,58.2637739 C149.602288,58.0987922 149.705401,57.9286549 149.84976,57.7842959 C149.968341,57.6657153 150.117856,57.5780688 150.251903,57.4749553 C150.406573,57.351219 150.540621,57.2171714 150.705603,57.1192136 L150.710758,57.1192136 L200.261973,28.5928511 C201.538395,27.8571345 203.110093,27.8571345 204.386515,28.5928511 L253.932573,57.1192136 C254.107866,57.2223271 254.241914,57.351219 254.396584,57.4697996 C254.525476,57.5729132 254.674991,57.6657153 254.793572,57.7791402 C254.93793,57.9286549 255.041044,58.0987922 255.16478,58.2637739 C255.257582,58.3875102 255.371007,58.4957794 255.443187,58.629827 C255.561767,58.8308984 255.628791,59.0525925 255.711282,59.269131 C255.757683,59.3877116 255.824707,59.4959808 255.855641,59.619717 Z M247.740605,114.878266 L247.740605,67.8378666 L230.402062,77.8192579 L206.448786,91.6106946 L206.448786,138.651094 L247.745761,114.878266 L247.740605,114.878266 Z M198.194546,199.97272 L198.194546,152.901386 L174.633101,166.357704 L107.351512,204.757188 L107.351512,252.27191 L198.194546,199.97272 Z M8.25939501,39.7961379 L8.25939501,199.97272 L99.0921175,252.266755 L99.0921175,204.762344 L51.6392637,177.906421 L51.6237967,177.89611 L51.603174,177.885798 C51.443348,177.792996 51.3093004,177.658949 51.1597857,177.545524 C51.0308938,177.44241 50.8813791,177.359919 50.7679542,177.246494 L50.7576429,177.231027 C50.6235953,177.102135 50.5307931,176.942309 50.4173682,176.79795 C50.3142546,176.658747 50.1905184,176.540167 50.1080276,176.395808 L50.1028719,176.380341 C50.0100697,176.22567 49.9533572,176.040066 49.8863334,175.864773 C49.8193096,175.710103 49.7316631,175.565744 49.6904177,175.400762 L49.6904177,175.395606 C49.6388609,175.19969 49.6285496,174.993463 49.6079269,174.792392 C49.5873041,174.637722 49.5460587,174.483051 49.5460587,174.328381 L49.5460587,174.31807 L49.5460587,63.5689658 L25.5979377,49.7723734 L8.25939501,39.8012935 L8.25939501,39.7961379 Z M53.6809119,8.89300821 L12.3994039,32.6555248 L53.6706006,56.4180414 L94.9469529,32.6503692 L53.6706006,8.89300821 L53.6809119,8.89300821 Z M75.1491521,157.19091 L99.0972731,143.404629 L99.0972731,39.7961379 L81.7587304,49.7775291 L57.8054537,63.5689658 L57.8054537,167.177457 L75.1491521,157.19091 Z M202.324244,36.934737 L161.047891,60.6972536 L202.324244,84.4597702 L243.59544,60.6920979 L202.324244,36.934737 Z M198.194546,91.6106946 L174.24127,77.8192579 L156.902727,67.8378666 L156.902727,114.878266 L180.850848,128.664547 L198.194546,138.651094 L198.194546,91.6106946 Z M103.216659,197.616575 L163.759778,163.052915 L194.023603,145.781396 L152.778185,122.034346 L105.289242,149.374903 L62.0073307,174.292291 L103.216659,197.616575 Z" fill="#FF2D20"> </path> </g> </g></svg>
</symbol>
<symbol id="springboot" viewBox="0 0 300 300">
  <svg viewBox="0 0 256 256" version="1.1" xmlns="http://www.w3.org/2000/svg" xmlns:xlink="http://www.w3.org/1999/xlink" preserveAspectRatio="xMidYMid" fill="#000000"><g id="SVGRepo_bgCarrier" stroke-width="0"></g><g id="SVGRepo_tracerCarrier" stroke-linecap="round" stroke-linejoin="round"></g><g id="SVGRepo_iconCarrier"> <g> <path d="M38.9437824,35.879008 C89.5234256,-13.1200214 170.398168,-11.8028432 219.397197,39.0402357 C224.929346,31.6640377 229.671187,23.4975328 233.095851,15.0675923 C249.165425,64.0666217 258.912543,105.162582 255.224444,137.038295 C253.380395,163.90873 242.842969,189.725423 225.456217,210.273403 C180.145286,264.014274 99.53398,270.863601 45.7931091,225.55267 L45.7931091,225.55267 L44.765,224.638 L44.7103323,224.601984 C44.5420247,224.484832 44.376007,224.362668 44.2124952,224.235492 C43.7219599,223.853965 43.2765312,223.438607 42.8762093,222.995252 L42.732,222.831 L41.0512675,221.3377 C39.4121124,219.93271 37.7729573,218.52772 36.3188215,216.93771 L35.7825547,216.332423 C-13.2164747,165.752779 -11.6358609,84.8780374 38.9437824,35.879008 Z M57.9111486,207.375611 C53.169307,203.687512 46.3199803,204.214383 42.6318814,208.956225 C39.3888978,213.125775 39.4048731,218.924805 42.6798072,222.771269 L42.732,222.831 L44.765,224.638 L44.9644841,224.773953 C49.5691585,227.80174 55.7644273,227.175885 59.2982065,222.896387 L59.4917624,222.654878 C63.1798614,217.913037 62.3895545,211.06371 57.9111486,207.375611 Z M231.778672,28.2393744 C218.60689,55.9001168 185.940871,76.9749681 157.753257,83.5608592 C131.146257,89.8833146 107.963921,84.6146018 83.4644059,94.0982849 C27.6160498,115.436572 28.6697923,181.822354 59.2283268,196.838185 L59.2283268,196.838185 L61.0723763,197.891928 C61.0723763,197.891928 83.1456487,193.50309 104.973663,187.707242 L106.843514,187.207079 C115.561826,184.857554 124.138869,182.296538 131.146257,179.714869 C167.500376,166.279651 207.542593,133.08676 220.714375,94.6251562 C213.865049,134.667374 179.35498,173.392413 144.84491,191.042601 C126.404416,200.526284 112.178891,202.633769 81.883792,213.171195 C78.195693,214.488373 75.297901,215.805551 75.297901,215.805551 C75.6675607,215.754564 76.0372203,215.70481 76.4060145,215.65629 L77.1421925,215.560893 L77.1421925,215.560893 L77.8745239,215.468787 C84.5652297,214.639554 90.5771682,214.224938 90.5771682,214.224938 C133.517178,212.117452 200.956702,226.342977 232.305544,184.45671 C264.444692,141.780136 246.531068,72.7599979 231.778672,28.2393744 Z" fill="#6DB33F"> </path> <path d="M57.9111486,207.375611 C62.3895545,211.06371 63.1798614,217.913037 59.4917624,222.654878 C55.8036635,227.39672 48.9543368,227.923591 44.2124952,224.235492 C39.4706537,220.547393 38.9437824,213.698066 42.6318814,208.956225 C46.3199803,204.214383 53.169307,203.687512 57.9111486,207.375611 Z M231.778672,28.2393744 C246.531068,72.7599979 264.444692,141.780136 232.305544,184.45671 C200.956702,226.342977 133.517178,212.117452 90.5771682,214.224938 C90.5771682,214.224938 84.5652297,214.639554 77.8745239,215.468787 L77.1421925,215.560893 C76.5300999,215.63902 75.9140004,215.720572 75.297901,215.805551 C75.297901,215.805551 78.195693,214.488373 81.883792,213.171195 C112.178891,202.633769 126.404416,200.526284 144.84491,191.042601 C179.35498,173.392413 213.865049,134.667374 220.714375,94.6251562 C207.542593,133.08676 167.500376,166.279651 131.146257,179.714869 C106.119871,188.935116 61.0723763,197.891928 61.0723763,197.891928 L59.2283268,196.838185 C28.6697923,181.822354 27.6160498,115.436572 83.4644059,94.0982849 C107.963921,84.6146018 131.146257,89.8833146 157.753257,83.5608592 C185.940871,76.9749681 218.60689,55.9001168 231.778672,28.2393744 Z" fill="#FFFFFF"> </path> </g> </g></svg>
</symbol>
<symbol id="express" viewBox="0 0 300 300">
  <svg fill="#000000" viewBox="-2.4 -2.4 28.80 28.80" role="img" xmlns="http://www.w3.org/2000/svg"><g id="SVGRepo_bgCarrier" stroke-width="0"><rect x="-2.4" y="-2.4" width="28.80" height="28.80" rx="14.4" fill="#ede607" strokewidth="0"></rect></g><g id="SVGRepo_tracerCarrier" stroke-linecap="round" stroke-linejoin="round"></g><g id="SVGRepo_iconCarrier"><path d="M24 18.588a1.529 1.529 0 0 1-1.895-.72l-3.45-4.771-.5-.667-4.003 5.444a1.466 1.466 0 0 1-1.802.708l5.158-6.92-4.798-6.251a1.595 1.595 0 0 1 1.9.666l3.576 4.83 3.596-4.81a1.435 1.435 0 0 1 1.788-.668L21.708 7.9l-2.522 3.283a.666.666 0 0 0 0 .994l4.804 6.412zM.002 11.576l.42-2.075c1.154-4.103 5.858-5.81 9.094-3.27 1.895 1.489 2.368 3.597 2.275 5.973H1.116C.943 16.447 4.005 19.009 7.92 17.7a4.078 4.078 0 0 0 2.582-2.876c.207-.666.548-.78 1.174-.588a5.417 5.417 0 0 1-2.589 3.957 6.272 6.272 0 0 1-7.306-.933 6.575 6.575 0 0 1-1.64-3.858c0-.235-.08-.455-.134-.666A88.33 88.33 0 0 1 0 11.577zm1.127-.286h9.654c-.06-3.076-2.001-5.258-4.59-5.278-2.882-.04-4.944 2.094-5.071 5.264z"></path></g></svg>
</symbol>

<!--databases-->
<symbol id="mongo" viewBox="0 0 300 300">
  <svg viewBox="0 0 1024 1024" xmlns="http://www.w3.org/2000/svg" fill="#000000"><g id="SVGRepo_bgCarrier" stroke-width="0"></g><g id="SVGRepo_tracerCarrier" stroke-linecap="round" stroke-linejoin="round"></g><g id="SVGRepo_iconCarrier"> <circle cx="512" cy="512" r="512" style="fill:#13aa52"></circle> <path d="M648.86 449.44c-32.34-142.73-108.77-189.66-117-207.59-9-12.65-18.12-35.15-18.12-35.15-.15-.38-.39-1.05-.67-1.7-.93 12.65-1.41 17.53-13.37 30.29-18.52 14.48-113.54 94.21-121.27 256.37-7.21 151.24 109.25 241.36 125 252.85l1.79 1.27v-.11c.1.76 5 36 8.44 73.34H526a726.68 726.68 0 0 1 13-78.53l1-.65a204.48 204.48 0 0 0 20.11-16.45l.72-.65c33.48-30.93 93.67-102.47 93.08-216.53a347.07 347.07 0 0 0-5.05-56.76zM512.35 659.12s0-212.12 7-212.08c5.46 0 12.53 273.61 12.53 273.61-9.72-1.17-19.53-45.03-19.53-61.53z" style="fill:#fff"></path> </g></svg>
</symbol>
<symbol id="mysql" viewBox="0 0 300 300">
  <svg viewBox="0 0 24 24" xmlns="http://www.w3.org/2000/svg" fill="#000000"><g id="SVGRepo_bgCarrier" stroke-width="0"></g><g id="SVGRepo_tracerCarrier" stroke-linecap="round" stroke-linejoin="round"></g><g id="SVGRepo_iconCarrier"> <path fill="#00758F" fill-rule="evenodd" d="M5.46192862,4.04007684 C5.18892668,4.03501656 4.99575061,4.06967946 4.79169495,4.11446291 L4.79169495,4.15152944 L4.82901449,4.15152944 C4.95944313,4.41909158 5.18943271,4.591394 5.35034952,4.82188962 C5.47407329,5.08262038 5.59817658,5.34297163 5.72227987,5.60332288 C5.73493056,5.5909252 5.74745474,5.57865403 5.75959941,5.56625635 C5.99047454,5.40394797 6.0957283,5.14410275 6.09471625,4.74737704 C6.00211318,4.64996671 5.98832392,4.52826705 5.90837155,4.4122602 C5.80235875,4.25754224 5.59615247,4.17012595 5.46192862,4.04007684 L5.46192862,4.04007684 Z M23.478665,23.1369293 C23.6543831,23.2658398 23.772161,23.4657208 24,23.5466852 L24,23.5093657 C23.8800714,23.3573044 23.8495833,23.1474294 23.7395222,22.9880306 C23.5786054,22.8271138 23.4164236,22.6655645 23.2555068,22.5040152 C22.7821179,21.8759083 22.1818425,21.3245911 21.5432356,20.8663831 C21.0345512,20.5006515 19.8944709,20.0072745 19.6819392,19.4148426 C19.6697946,19.4021919 19.6571439,19.3896677 19.6444932,19.3770171 C20.0054174,19.3365348 20.4283301,19.2059797 20.7614228,19.1165393 C21.3210894,18.9665021 21.8214243,19.0054662 22.3990549,18.8560615 C22.6600387,18.781296 22.9203899,18.7066569 23.1808677,18.6329033 L23.1808677,18.4834987 C22.8887632,18.1836773 22.6805328,17.7869515 22.3622414,17.5155942 C21.5283078,16.8061434 20.6188495,16.0966926 19.6818127,15.5056522 C19.1626283,15.1774933 18.5200996,14.9645821 17.969415,14.6865199 C17.7842089,14.5931578 17.4590861,14.5444526 17.3365009,14.3887226 C17.0476856,14.0198284 16.8899314,13.5523853 16.6667732,13.1228943 C16.1997097,12.2230506 15.740363,11.2403448 15.3263059,10.293567 C15.044322,9.6481287 14.8597484,9.01154587 14.5076796,8.43227067 C12.8174206,5.65329311 10.9976185,3.97581132 8.17942382,2.3270466 C7.57927498,1.97649592 6.85742648,1.83809735 6.09471625,1.65719245 C5.68546635,1.6325236 5.27545742,1.60734872 4.86620752,1.58267987 C4.61635635,1.47831166 4.35651113,1.17267094 4.12184079,1.02427832 C3.18796669,0.434503045 0.792811133,-0.848656668 0.10157731,0.838313141 C-0.335124586,1.90286889 0.753847001,2.94174374 1.14361483,3.48142227 C1.4172493,3.85980447 1.76704094,4.2842352 1.96287366,4.70967798 C2.09127818,4.98938478 2.11316388,5.27010364 2.22385744,5.56600333 C2.49432924,6.29518923 2.7293791,7.08838764 3.07929725,7.76241652 C3.25653344,8.10322617 3.45173363,8.46263233 3.67539786,8.76738751 C3.81265788,8.95449125 4.04720171,9.03684725 4.08401522,9.32578906 C3.85465817,9.64749617 3.84150145,10.1466925 3.7125909,10.5541713 C3.13065906,12.3887747 3.35014857,14.6686824 4.19660638,16.0266077 C4.45594557,16.443195 5.06773305,17.3374725 5.90837155,16.9942592 C6.64375629,16.6946908 6.47980332,15.76613 6.69018433,14.9469976 C6.73749792,14.760906 6.70865434,14.624405 6.80176344,14.5003017 L6.80176344,14.5373682 C7.02542767,14.9840642 7.2488389,15.4307601 7.47199711,15.8773296 C7.96815726,16.6759678 8.84826592,17.5111665 9.59415073,18.0739958 C9.98037636,18.3659737 10.2848785,18.8709894 10.7852134,19.0419002 L10.7852134,19.0040746 L10.7478939,19.0040746 C10.6504835,18.8536579 10.4989282,18.790531 10.3759635,18.6694638 C10.0844916,18.3836847 9.76050733,18.0287063 9.51938514,17.7014329 C8.84080201,16.780589 8.24153872,15.7725818 7.69553484,14.7235864 C7.43455106,14.2224925 7.20785066,13.6697838 6.98785512,13.1600874 C6.90322199,12.9633691 6.90423404,12.6662043 6.72737736,12.5643663 C6.48650818,12.9378147 6.13190928,13.2401663 5.94556458,13.6811694 C5.64776729,14.386319 5.60943569,15.2461865 5.49899515,16.1379338 C5.43371758,16.1614641 5.46268766,16.1453977 5.42422956,16.1750003 C4.90555118,16.0502645 4.72350772,15.5164053 4.53096418,15.0584502 C4.04378602,13.9006589 3.95333357,12.0360734 4.38206553,10.7030699 C4.4930121,10.3583386 4.99499157,9.27202362 4.79131543,8.95347919 C4.69441112,8.63544079 4.37510765,8.45187925 4.19635337,8.20885945 C3.97420721,7.90853201 3.75332613,7.5134509 3.59974672,7.16644241 C3.20150293,6.26368901 3.01528474,5.25024206 2.59540827,4.33749461 C2.39451528,3.90142525 2.0550972,3.45966308 1.77627595,3.07166635 C1.46759906,2.64204884 1.12185564,2.32578153 0.882884062,1.80583808 C0.797744903,1.62126448 0.681991069,1.32587082 0.808244978,1.13598393 C0.848094658,1.00783242 0.905022773,0.954446496 1.03190922,0.912572704 C1.24810955,0.746089595 1.84889092,0.967982736 2.07394674,1.06147135 C2.67055338,1.30929841 3.16924367,1.54548684 3.67489184,1.88035066 C3.91740561,2.04126747 4.16295554,2.35272751 4.45607208,2.43887872 L4.79118892,2.43887872 C5.31568662,2.5591868 5.90280525,2.47645128 6.39200751,2.62509691 C7.25744137,2.8881048 8.0329288,3.29722819 8.73719284,3.74202653 C10.8826237,5.09653615 12.6370217,7.02526068 13.8370664,9.32578906 C14.030116,9.69620133 14.1138635,10.0496617 14.2836358,10.4427187 C14.6265961,11.2350315 15.0591233,12.0501156 15.4004389,12.825097 C15.7408691,13.5978013 16.0728232,14.3779695 16.5541821,15.0213837 C16.8071959,15.3594102 17.7850944,15.5408211 18.2297663,15.7288104 C18.5412263,15.8602511 19.0514287,15.9976376 19.3460633,16.1750003 C19.9100312,16.5151775 20.4556556,16.9197466 20.9842015,17.292183 C21.2483479,17.4785277 22.0606489,17.886639 22.1006251,18.2223884 C20.7916579,18.1877255 19.7916207,18.3092986 18.9366869,18.6695903 C18.6936671,18.7716814 18.3064295,18.7747176 18.2664533,19.0787137 C18.4000446,19.2186304 18.4211712,19.4281259 18.527437,19.6000488 C18.7309867,19.9304848 19.0755915,20.3728795 19.3833829,20.6053993 C19.7195118,20.8590456 20.0657612,21.130403 20.4255469,21.3498925 C21.0663045,21.7407989 21.7818276,21.9638306 22.3984224,22.3551165 C22.7632683,22.5861182 23.1241926,22.8764515 23.478665,23.1369293 L23.478665,23.1369293 Z"></path> </g></svg>
</symbol>
<symbol id="postgre" viewBox="0 0 300 300">
  <svg viewBox="-4 0 264 264" version="1.1" xmlns="http://www.w3.org/2000/svg" xmlns:xlink="http://www.w3.org/1999/xlink" preserveAspectRatio="xMidYMid" fill="#000000"><g id="SVGRepo_bgCarrier" stroke-width="0"></g><g id="SVGRepo_tracerCarrier" stroke-linecap="round" stroke-linejoin="round"></g><g id="SVGRepo_iconCarrier"> <g> <path d="M255.007926,158.085617 C253.473109,153.437413 249.452194,150.199279 244.251788,149.42182 C241.799982,149.055852 238.991667,149.211935 235.668988,149.897164 C229.877358,151.092028 225.580342,151.546679 222.44449,151.635363 C234.280794,131.650217 243.905921,108.859714 249.446873,87.4065589 C258.406282,52.7182633 253.61855,36.9154365 248.023797,29.7669469 C233.217182,10.8477783 211.614448,0.683454965 185.55152,0.371879908 C171.649478,0.202198614 159.443658,2.94725173 153.077358,4.92075751 C147.149155,3.87547344 140.774577,3.29134411 134.08606,3.18315012 C121.550337,2.9833164 110.473164,5.71595381 101.008259,11.332582 C95.7670577,9.56127483 87.3580785,7.06335335 77.6460416,5.46882217 C54.8035104,1.71868822 36.3939769,4.64110855 22.9282587,14.153903 C6.62230023,25.6721293 -0.937090069,45.6838799 0.461154734,73.6339954 C0.904572748,82.5082679 5.86908083,109.507695 13.6850624,135.114199 C18.1771824,149.831538 22.9672794,162.053912 27.9223279,171.443732 C34.9490254,184.758688 42.4676212,192.600092 50.9085266,195.415501 C55.6400924,196.992296 64.2358984,198.09552 73.2774873,190.566873 C74.4232794,191.953885 75.9515935,193.33321 77.9812656,194.613801 C80.5578199,196.239076 83.7090439,197.566965 86.8555381,198.353885 C98.1969885,201.189395 108.820102,200.479926 117.882975,196.506309 C117.93855,198.117986 117.981709,199.658125 118.018365,200.987788 C118.07867,203.145164 118.137792,205.259972 118.217016,207.237617 C118.753848,220.612286 119.663741,231.011326 122.359723,238.286928 C122.507529,238.687778 122.706771,239.29733 122.917247,239.943538 C124.261691,244.062005 126.511298,250.955677 132.232573,256.355326 C138.158411,261.947714 145.325229,263.663446 151.888998,263.662855 C155.180933,263.662855 158.322106,263.231261 161.076619,262.640628 C170.897441,260.536462 182.050291,257.329663 190.118134,245.84218 C197.745515,234.981986 201.453672,218.625182 202.124711,192.851363 C202.211621,192.122975 202.292028,191.427104 202.369478,190.763751 C202.421506,190.316194 202.474716,189.858587 202.528517,189.402162 L204.325838,189.560018 L204.788767,189.591353 C214.791095,190.047187 227.021155,187.925875 234.532065,184.437062 C240.467363,181.68255 259.485857,171.642383 255.007926,158.085617" fill="#000000"> </path> <path d="M237.905589,160.722476 C208.165838,166.857016 206.121386,156.78788 206.121386,156.78788 C237.521885,110.194697 250.64824,51.0516028 239.320388,36.5766651 C208.417109,-2.90823095 154.921977,15.7655797 154.029229,16.2503834 L153.741894,16.3018199 C147.866309,15.0821247 141.290716,14.3555104 133.900416,14.2349007 C120.443566,14.0143741 110.236083,17.7627344 102.490457,23.636545 C102.490457,23.636545 7.06039723,-15.6768961 11.4987159,73.0806097 C12.4429007,91.9631224 38.5625866,215.954032 69.7171363,178.502947 C81.1041109,164.808425 92.1061986,153.229303 92.1061986,153.229303 C97.5708822,156.859418 104.112776,158.711132 110.970975,158.046005 L111.503667,157.593718 C111.338125,159.294079 111.413801,160.957192 111.717099,162.925968 C103.691233,171.893062 106.049626,173.467492 90.0055797,176.770069 C73.7711594,180.115806 83.308194,186.072388 89.5349654,187.629081 C97.0837136,189.516859 114.54788,192.190965 126.34812,175.672166 L125.877506,177.556988 C129.022226,180.075603 131.230448,193.940397 130.860342,206.508637 C130.490236,219.077469 130.243104,227.706383 132.720924,234.446337 C135.198744,241.186291 137.668286,256.351187 158.759612,251.831871 C176.383409,248.055132 185.516046,238.268009 186.786587,221.94254 C187.688203,210.336222 189.728517,212.051954 189.857404,201.675381 L191.493912,196.762901 C193.381099,181.029838 191.793663,175.95418 202.651492,178.314938 L205.290125,178.546697 C213.2817,178.9103 223.741044,177.261376 229.879723,174.408129 C243.098309,168.273589 250.93794,158.031224 237.904406,160.722476 L237.905589,160.722476" fill="#336791"> </path> <path d="M108.076342,81.5250624 C105.396915,81.152 102.969349,81.4972748 101.741376,82.426679 C101.050236,82.9499122 100.836804,83.5559169 100.779455,83.973321 C100.625145,85.0783187 101.399649,86.2997875 101.874993,86.9300323 C103.220619,88.7137552 105.18703,89.9399538 107.133339,90.2101432 C107.415353,90.249164 107.695594,90.2680831 107.974651,90.2680831 C111.220471,90.2680831 114.170679,87.7411917 114.430818,85.8758799 C114.755991,83.5399538 111.36473,81.9826697 108.076342,81.5250624" fill="#FFFFFF"> </path> <path d="M196.860453,81.5989654 L196.859861,81.5989654 C196.604453,79.7679446 193.345626,79.2458938 190.253524,79.6757136 C187.166152,80.1061247 184.171603,81.4996397 184.421691,83.3347991 C184.622707,84.7620139 187.19867,87.198448 190.249386,87.1978568 C190.506568,87.1978568 190.766707,87.1807113 191.028619,87.1440554 C193.064794,86.8620416 194.558818,85.5690346 195.268286,84.8235012 C196.349635,83.688351 196.974559,82.4219492 196.860453,81.5989654" fill="#FFFFFF"> </path> <path d="M247.802088,160.025423 C246.66812,156.596323 243.018494,155.492508 236.954309,156.745312 C218.949173,160.461155 212.501284,157.886965 210.38352,156.327908 C224.378975,135.007187 235.89188,109.236323 242.102688,85.1906513 C245.04521,73.8007206 246.670485,63.2231316 246.802919,54.601903 C246.949543,45.1375889 245.338457,38.1842032 242.014005,33.9362587 C228.611547,16.8108637 208.942115,7.62501617 185.131751,7.37256351 C168.763122,7.18869284 154.93321,11.3781062 152.252009,12.5558245 C146.60582,11.1516674 140.450587,10.2896628 133.750245,10.1796952 C121.461654,9.98104388 110.840314,12.9229746 102.045857,18.9191686 C98.2259584,17.4978661 88.3536998,14.10897 76.2814965,12.1644342 C55.4089238,8.80332564 38.8233164,11.3497275 26.9870115,19.7350577 C12.8638522,29.740933 6.34383372,47.626642 7.60727945,72.8943741 C8.03236952,81.3961755 12.8756767,107.547788 20.5202032,132.593219 C30.5822448,165.556915 41.5192979,184.218309 53.0280647,188.056536 C54.374873,188.505866 55.9286097,188.820397 57.6407945,188.820397 C61.8390762,188.820397 66.9856813,186.927889 72.3409885,180.490051 C81.2359538,169.788896 89.5408776,160.821801 92.6022356,157.563566 C97.1262818,159.992314 102.09552,161.347991 107.179455,161.483972 C107.188323,161.616998 107.201921,161.750023 107.213746,161.882457 C106.193885,163.092102 105.357303,164.152166 104.644286,165.05733 C101.122365,169.528166 100.389247,170.458753 89.0519353,172.793497 C85.8273995,173.458624 77.2611547,175.224018 77.1364065,181.227898 C76.9998337,187.787529 87.2605266,190.542633 88.4299677,190.834697 C92.5040924,191.854559 96.4286374,192.357691 100.171677,192.357691 C109.275344,192.357099 117.285838,189.365506 123.688203,183.576831 C123.490734,206.962697 124.466254,230.006836 127.273977,237.028212 C129.573247,242.775501 135.191649,256.822984 152.93842,256.821801 C155.54158,256.821801 158.408425,256.519095 161.561423,255.843326 C180.082106,251.872074 188.124527,243.686577 191.236139,225.640055 C192.901025,215.995418 195.758411,192.963695 197.101672,180.610069 C199.937774,181.49454 203.589173,181.899529 207.536185,181.898938 C215.768388,181.898938 225.266993,180.150097 231.224166,177.384942 C237.91564,174.277469 249.991982,166.650679 247.802088,160.025423 L247.802088,160.025423 Z M203.696185,76.5445912 C203.634697,80.1918522 203.132748,83.5027067 202.600647,86.9590023 C202.028342,90.6760277 201.435935,94.5189838 201.286947,99.1843326 C201.139732,103.724342 201.706716,108.444674 202.255372,113.008924 C203.363326,122.228471 204.500249,131.720573 200.098587,141.086744 C199.41454,139.871778 198.754143,138.546254 198.14873,137.078245 C197.601848,135.752129 196.414079,133.621949 194.769885,130.673515 C188.370476,119.197857 173.385312,92.3243603 181.056443,81.3583372 C183.340933,78.0935982 189.139658,74.7384018 203.696185,76.5445912 L203.696185,76.5445912 Z M186.052286,14.7581339 C207.386014,15.2293395 224.261321,23.2102725 236.209958,38.4780416 C245.373931,50.1890069 235.282919,103.476028 206.069949,149.446651 C205.781432,149.080092 205.487594,148.709986 205.183704,148.33042 C205.062503,148.178476 204.938938,148.024166 204.814189,147.868083 C212.362938,135.400942 210.886651,123.066236 209.572952,112.129774 C209.033164,107.641792 208.523529,103.402716 208.653007,99.4214134 C208.787215,95.2000739 209.34533,91.5811917 209.884527,88.0811455 C210.548471,83.7675751 211.223058,79.3050162 211.036822,74.0437136 C211.17576,73.4921016 211.231926,72.8399815 211.159206,72.0660693 C210.683861,67.0205635 204.924157,51.9224758 193.18363,38.2551501 C186.762346,30.7808961 177.396767,22.4156674 164.609774,16.7736166 C170.109931,15.6337367 177.631483,14.5707159 186.052286,14.7581339 L186.052286,14.7581339 Z M66.6741062,175.777995 C60.7742818,182.871501 56.6995658,181.512277 55.3598522,181.065903 C46.6292471,178.153533 36.499806,159.702023 27.568776,130.441755 C19.8408868,105.123769 15.3245266,79.6650716 14.9674273,72.5260416 C13.8387806,49.9483788 19.3117413,34.2129515 31.2349561,25.7572656 C50.6389284,11.9965266 82.5413764,20.2328684 95.3602956,24.4104573 C95.1758337,24.591963 94.9842771,24.7622356 94.8015889,24.9466975 C73.7664296,46.1911501 74.2654226,82.4875751 74.3168591,84.7058476 C74.3150855,85.56194 74.3866236,86.7739492 74.485358,88.4412009 C74.8471871,94.5455889 75.5205912,105.907732 73.7214965,118.775132 C72.0489238,130.732046 75.7346143,142.435326 83.8320185,150.883917 C84.6703741,151.758337 85.5453857,152.579547 86.4493672,153.352277 C82.8446744,157.212379 75.0115473,165.74788 66.6741062,175.777995 L66.6741062,175.777995 Z M89.1530346,145.78461 C82.6265127,138.975483 79.6627067,129.503483 81.020157,119.795584 C82.920351,106.202753 82.2185681,94.3646744 81.8419584,88.0048776 C81.7893395,87.1150855 81.7426328,86.335261 81.7148453,85.7197968 C84.7880277,82.9954365 99.0288406,75.3645081 109.184296,77.6915658 C113.819492,78.7534042 116.642587,81.9087667 117.816758,87.3373857 C123.893358,115.440037 118.621413,127.153367 114.385293,136.565654 C113.512055,138.504868 112.687298,140.337663 111.982559,142.234309 L111.436859,143.699954 C110.054577,147.406337 108.768665,150.851991 107.971695,154.124416 C101.034273,154.103132 94.2848591,151.139917 89.1530346,145.78461 L89.1530346,145.78461 Z M90.2178291,183.685025 C88.1922956,183.178938 86.3701432,182.299788 85.3012102,181.570808 C86.1939584,181.150448 87.7831686,180.579326 90.5388637,180.011751 C103.876286,177.265515 105.93552,175.328074 110.433552,169.61685 C111.465238,168.30788 112.634088,166.823316 114.252859,165.015353 C114.25345,165.014171 114.254042,165.01358 114.254633,165.012988 C116.666236,162.31346 117.768868,162.771067 119.768979,163.600554 C121.390115,164.271594 122.968684,166.303039 123.608979,168.539048 C123.911686,169.594975 124.252231,171.599815 123.138956,173.158873 C113.742633,186.31479 100.051067,186.1457 90.2178291,183.685025 L90.2178291,183.685025 Z M160.016554,248.637487 C143.700545,252.133395 137.923695,243.80837 134.116804,234.291436 C131.659677,228.146845 130.452397,200.440314 131.309081,169.84388 C131.320314,169.436527 131.262374,169.043363 131.150042,168.673848 C131.05249,167.96024 130.902319,167.238356 130.694208,166.511741 C129.419529,162.059824 126.315012,158.335704 122.5903,156.792018 C121.110467,156.178919 118.393792,155.05382 115.129644,155.888628 C115.826106,153.0206 117.033386,149.782467 118.341764,146.275326 L118.891012,144.79963 C119.509432,143.136517 120.284527,141.413691 121.105145,139.590356 C125.538143,129.741746 131.609423,116.25297 125.020231,85.7795104 C122.551871,74.3659307 114.310208,68.7924619 101.815871,70.0866513 C94.3250624,70.861746 87.472776,73.8840831 84.0549099,75.6169607 C83.3200185,75.9894319 82.6477968,76.3488961 82.0199169,76.6994919 C82.9735612,65.1990023 86.578254,43.707418 100.060527,30.1098568 C108.54873,21.548933 119.854115,17.3210901 133.628453,17.5487113 C160.768591,17.9933118 178.172453,31.9213672 187.994457,43.5276859 C196.457829,53.5294226 201.040998,63.6038799 202.870245,69.0372286 C189.115418,67.6389838 179.76048,70.3544758 175.017681,77.1340416 C164.700822,91.8815335 180.662097,120.506236 188.333229,134.262836 C189.739751,136.784406 190.954125,138.963067 191.336055,139.888924 C193.833977,145.943058 197.067972,149.984665 199.429321,152.935464 C200.152979,153.839446 200.855353,154.716231 201.389229,155.481866 C197.223464,156.683233 189.740342,159.457848 190.422023,173.328554 C189.872185,180.289035 185.960647,212.874938 183.974134,224.387843 C181.351464,239.597672 175.754346,245.263372 160.016554,248.637487 L160.016554,248.637487 Z M228.120831,170.700564 C223.861062,172.678208 216.732083,174.161589 209.959612,174.479667 C202.479446,174.830263 198.671963,173.641903 197.776259,172.91115 C197.355307,164.267455 200.573339,163.364065 203.978199,162.408055 C204.513256,162.257293 205.035307,162.111261 205.53903,161.935076 C205.852379,162.189894 206.195289,162.442938 206.570716,162.690661 C212.582873,166.658956 223.306494,167.087002 238.444785,163.962383 C238.50036,163.950559 238.555935,163.939917 238.610919,163.928684 C236.569423,165.837746 233.075289,168.400111 228.120831,170.700564 L228.120831,170.700564 Z" fill="#FFFFFF"> </path> </g> </g></svg>
</symbol>


<symbol id="" viewBox="0 0 300 300">

</symbol>
<!--Manz-->
<symbol id="atomico" viewBox="0 0 260 260">
  <path fill="#150202"
    d="M172 46a43 43 0 0 0-37 20 74 74 0 0 0-12-1 74 74 0 0 0-75 74 74 74 0 0 0 75 75 74 74 0 0 0 30-7 37 37 0 0 0 18 5 37 37 0 0 0 36-37 37 37 0 0 0-11-27 74 74 0 0 0 1-9 74 74 0 0 0-2-14 43 43 0 0 0 20-36 43 43 0 0 0-43-43z" />
  <g fill="#fff">
    <path
      d="M193 197a31 31 0 0 1-3 3h-28a72 72 0 0 0 5-4h27a31 31 0 0 1-1 1zm4-4h-26a73 73 0 0 0 4-4h24a31 31 0 0 1-2 4zm-13 11a31 31 0 0 1-12 2 31 31 0 0 1-13-2h25zm17-19h-23a73 73 0 0 0 3-3h21a31 31 0 0 1-1 3zm1-7h-19a72 72 0 0 0 3-4h16a32 32 0 0 1 0 4zm0-7h-15a71 71 0 0 0 2-4h12a31 31 0 0 1 1 4zm-2-8h-10l2-4h6a31 31 0 0 1 2 4zm-5-7h-2a71 71 0 0 0 0-3 31 31 0 0 1 2 3zM171 188a69 69 0 0 1-11 8 68 68 0 0 1-12 7 68 68 0 0 1-13 3 69 69 0 0 1-13 2 69 69 0 0 1-13-2 68 68 0 0 1-13-3 68 68 0 0 1-11-7 69 69 0 0 1-11-8 69 69 0 0 1-9-11 68 68 0 0 1-6-12 68 68 0 0 1-4-13 69 69 0 0 1-1-13 69 69 0 0 1 1-13 68 68 0 0 1 4-13 68 68 0 0 1 6-11 69 69 0 0 1 9-11 69 69 0 0 1 13-10 68 68 0 0 1 14-7 69 69 0 0 1 16-3 69 69 0 0 1 16 1 43 43 0 0 0 8 48 43 43 0 0 0 49 9 69 69 0 0 1 0 16 69 69 0 0 1-3 15 68 68 0 0 1-6 15 69 69 0 0 1-10 13z" />
    <path
      d="m185 125 23-22a38 38 0 0 1-9 14 38 38 0 0 1-14 8zm-8 3a39 39 0 0 1-7 0l40-40a39 39 0 0 1 0 7zm-13-1a39 39 0 0 1-5-1l49-49a39 39 0 0 1 1 5zm-10-3a38 38 0 0 1-4-3l54-53a38 38 0 0 1 2 4zm-7-5-3-2-1-2 55-54 1 1 2 2zm-7-7a38 38 0 0 1-2-4l52-52a38 38 0 0 1 4 2zm-4-8a38 38 0 0 1-2-6l47-46a38 38 0 0 1 5 2zm-3-11a39 39 0 0 1 0-7l35-35a39 39 0 0 1 7 0zm1-14a38 38 0 0 1 10-17 38 38 0 0 1 17-10z" />
  </g>
</symbol>
<symbol id="bundler" viewBox="0 0 135 135">
  <path fill="#b18d5e" d="m10 98 57 32V59L10 27v71z" />
  <path fill="#87653a" d="M67 130V59l57-26v68l-57 29" />
  <path fill="#e4b880" d="m10 27 57 32 57-26L68 6Z" />
  <path fill="#e7e7e7" d="m33 19 54 31 19-9-55-29z" />
  <path fill="#c7c7c7" d="M87 50v15l19-9V41l-19 9z" />
</symbol>
<symbol id="gulpjs" viewBox="0 0 175 387">
  <path d="m20 288 4 7 29 22 74-10 22-12 4-7 21-184v-6l-78-7-95 7 3 17 16 173z" fill="#f7fcff" />
  <g fill="#DA4648">
    <path
      d="M87 86C39 86 0 91 0 98s39 12 87 12c49 0 87-5 87-12s-38-12-87-12zm25 13c6 0 10 1 10 2 0 2-4 3-10 3s-10-1-10-3c0-1 4-2 10-2zm62 5-5 2-20 4a472 472 0 0 1-147-6l6 62 7 62 5 60c2 4 30 13 67 13s65-9 66-13l8-71 1-10 2-11 1-9 9-83zm-25 191-14 4a211 211 0 0 1-111-4l12 19 4 60c0 7 21 12 48 12 26 0 47-5 47-12l4-60 10-19z" />
    <path d="M104 100v1l8 1 8-1 11-45 43-45c1-1-1-5-4-7-3-3-6-4-7-3l-46 49-13 50z" />
  </g>
</symbol>
<symbol id="lit" viewBox="0 0 160 200">
  <path fill="#324fff" d="M0 80v80a70 70 0 0 0 40-40z" />
  <path fill="#283198" d="M40 120c6 27 5 47 0 80L0 160z" />
  <path fill="#0ff" d="M40 120v80l40-40a150 150 0 0 0-40-40z" />
  <path fill="#324fff" d="M80 0v80S48 56 40 40z" />
  <path fill="#324fff" d="M40 40v80a85 85 0 0 0 40-40z" />
  <path fill="#00e8ff" d="M80 80a182 182 0 0 1 0 80l-40-40z" />
  <path fill="#283198" d="M80 80v80c17-7 32-19 40-40-6-17-18-31-40-40z" />
  <path fill="#283198" d="M120 40v80L80 80z" />
  <path fill="#00e8ff" d="M120 120c6 27 5 54 0 80l-40-40z" />
  <path fill="#324fff" d="M120 120v80l40-40c-5-15-18-28-40-40z" />
  <path fill="#324fff" d="M160 80v80l-40-40z" />
</symbol>
<symbol id="npm" viewBox="0 0 300 117">
  <path fill="#cb3837" d="M86 118h65v-16h145V5H5v97h81z" />
  <path fill="#fff"
    d="M86 37V21H21v65h32V37h17v49h16zm16-16v81h33V86h32V21zm49 48h-16V37h16zm64 17V37h16v49h17V37h16v49h16V21h-97v65z" />
</symbol>
<symbol id="postcss" viewBox="0 0 512 512">
  <path fill="#dd3735"
    d="M248 2a97 97 0 0 0-1 0 146 146 0 0 0-14 1l-15 2-16 2-16 3-6 1a108 108 0 0 0-13 3 336 336 0 0 0-22 7 202 202 0 0 0-19 9l-19 12-17 13a200 200 0 0 0-16 14l-7 9-13 14-10 14a218 218 0 0 0-15 24l-5 10-8 16a65 65 0 0 0-4 11l-7 26a96 96 0 0 0-3 23 162 162 0 0 0 1 20c1 2-1 4 2 5l-1 1a2 2 0 0 0 1 3 1 1 0 0 1 1 0H5v4l1 2a6 6 0 0 0 0 2 40 40 0 0 1 1 4l1 4a2 2 0 0 1 0 2c-1 1-1 2 1 3a2 2 0 0 1 1 1 19 19 0 0 1-1 3v2a23 23 0 0 1 2 9 7 7 0 0 0 1 2 3 3 0 0 1 1 1l-1 3a14 14 0 0 1 2-1 53 53 0 0 0 2 6 3 3 0 0 0 1 1l-1 1a52 52 0 0 0 3 9l-1-10v-1a12 12 0 0 1 1 2l5 1a16 16 0 0 1 0-1l-3-4a5 5 0 0 1 0 2l-2-1a30 30 0 0 1 2-2c0-2-1-3-3-3l3-1a12 12 0 0 0 1 1c1-2-1-4-1-7a44 44 0 0 0-2-9l-1-16-1-1-1 2 1 13-3-12a20 20 0 0 0 0 3l-1-1 1 4a6 6 0 0 0-2-1v5a23 23 0 0 1-3-4l-1-4a9 9 0 0 1 0-2l-1-4 2-1-2-2a28 28 0 0 0 3 0v-5l2-1c2-3 4-5 4-8a46 46 0 0 1 1-5v-8a79 79 0 0 1 1-11 235 235 0 0 1 10-31 199 199 0 0 1 8-20l15-27 11-16 10-16a139 139 0 0 1 18-19l21-19a209 209 0 0 1 31-19 232 232 0 0 1 27-12l18-5a72 72 0 0 1 20-3l14-2 13-1a8 8 0 0 0-1 2l-6 8-5 7-8 11-12 17-12 16-17 22-16 21-12 19-19 28-15 21a4 4 0 0 1-2 1l-1 1a20 20 0 0 1 0 3l-5 8-3 4h-1c1-2 4-3 3-6l-3 4-2 4c1 1 2 1 1 2l-2 3 2-2a25 25 0 0 1-2 5 14 14 0 0 1-4 4h2l1-1h1a8 8 0 0 0 1-1 6 6 0 0 1 4-4 7 7 0 0 0 2-1l15-16 20-27 10-11a230 230 0 0 0 0 11l-2 19v15l-2 19a10 10 0 0 0 1 4 5 5 0 0 0-1-1 188 188 0 0 1 1 30l1-1a26 26 0 0 0 0-4 21 21 0 0 0 0-3v-2a58 58 0 0 0 1-9 32 32 0 0 1 0-10l1-5v3a239 239 0 0 1-1 29c-1 1 0 2-2 2l-1 2v9l1 1v11h1a128 128 0 0 0 2-20 68 68 0 0 1 0 9v13a13 13 0 0 1-1 2 46 46 0 0 1-1 7 19 19 0 0 0 0 7v13l-1 1a2 2 0 0 0 0 1l1 3v1a5 5 0 0 0 0-2c3 0 2 3 3 4l-1 1a8 8 0 0 1 0 2 39 39 0 0 1 0 4v18h1a9 9 0 0 1-2 2v-22h-3a180 180 0 0 1-1 29 44 44 0 0 1-5 1h-35l-9 1-13-1-19 1H48l-9 1a28 28 0 0 0-4 1 15 15 0 0 0-3 0l-5 2c-2 0-3 1-3 3v2a5 5 0 0 0-1-1l1 2 2-1h2l-1 1 3-1a5 5 0 0 1 0 2 22 22 0 0 1 7-1 136 136 0 0 0 20 3l13 1 20 1 15-1 22 1h18l33-1 19-1 20-1h39l19-1 10-1 13-1 18-1 24-1 21-1h20l10-1h11l19-2h39l-3 3a11 11 0 0 1 2 1h-1l-2 1a11 11 0 0 0-1 3h3l-3 2v1c-2-1-3-1-4 1a4 4 0 0 0 2 0l-1 2a3 3 0 0 0 0 1h-1a2 2 0 0 0 0-1c-1 1-3 1-2 4l-2 1a8 8 0 0 1 1 1c-2 0-3 0-3 2l2 1-3 1-1 2c-2 0-1 1 0 2a7 7 0 0 1-1 1 3 3 0 0 1 1 0 10 10 0 0 1-1 1 6 6 0 0 0 1 0l-3 2a2 2 0 0 0 0 1 15 15 0 0 0-2 3 34 34 0 0 1-2 3 63 63 0 0 1-11 12 37 37 0 0 0-4 4l-9 9-14 10-17 12-9 5-10 6a49 49 0 0 1-6 4l-18 7h-1l-13 5a98 98 0 0 1-12 4 37 37 0 0 1-4 0l-9 1-23 3-13 2h-9a46 46 0 0 1-7 0l-11-2a5 5 0 0 0-3 0h-4l-2-1h-2a16 16 0 0 0-6-1 22 22 0 0 1-6-1l-9-2a15 15 0 0 1-4-2 3 3 0 0 1-1 1 47 47 0 0 1-9-2 15 15 0 0 0-7-2h-2l-2-2c-3 0-5-3-8-3l-4-3c-4-2-7-5-11-5a25 25 0 0 1-5-2 15 15 0 0 0 2 2h-1l-13-8-2-1-5-3-1-1h-3c-5-3-10-5-14-9a28 28 0 0 1-6-4 27 27 0 0 0-8-7l-8-4a5 5 0 0 1-2-4c0-1-1-3-2-2l-2-2a18 18 0 0 1-5-4c-2-2-3-4-5-4a20 20 0 0 1-8-7l-13-18a12 12 0 0 0-2-1l3 5-1 1-3-4h-1l12 20 3 5a7 7 0 0 1-5-3 6 6 0 0 0-6-4 30 30 0 0 1-1-4 14 14 0 0 1-3 0l7 11-2-1 9 9c1 4 6 6 7 10l-3-1-4-5a9 9 0 0 0 1 3 65 65 0 0 0 7 8l2 2a5 5 0 0 1 1-1 11 11 0 0 0 0 2h1c1 1 0 3 2 2l1 1c0 2 2 2 4 1a1 1 0 0 1 1 0c1 2 2 2 4 1v2h1l-1-1 2 1a29 29 0 0 0 6 7l9 8a131 131 0 0 0 19 13l25 14a132 132 0 0 0 32 11l12 3 11 3 16 4h8c1 2 2 1 3 1a15 15 0 0 1 4-1 132 132 0 0 0 14 1c1 0 2-1 3 1h1l2-1v1a8 8 0 0 1-1 0 14 14 0 0 1 2 0 2 2 0 0 1-1 1 8 8 0 0 0-2 1 38 38 0 0 0 17 0v-1h1a2 2 0 0 0 0 1 55 55 0 0 0 23-3c1 1 2 2 3 0l1-1a9 9 0 0 1 5 0l3-1a32 32 0 0 0 6-1l3-1a28 28 0 0 0-3 0l5-3h1l-2 1h2l-2 3 18-5h-2c0-3 4-2 5-4l-5 1 18-8v1l-4 2a22 22 0 0 1 2 0v1c3 0 2-3 3-4h2a44 44 0 0 0 5-1 57 57 0 0 0 5-2l8-4a8 8 0 0 1 2 0 2 2 0 0 0 1-1l2-1a4 4 0 0 0 5-3 25 25 0 0 1 3-2l11-6h1a4 4 0 0 0 1 0l6-4h-1v-1a21 21 0 0 0 3 0v-1l14-11a10 10 0 0 0 2 0 4 4 0 0 0 0-1 16 16 0 0 1 2-3l11-10 15-15a139 139 0 0 0 11-15l13-23 9-16 2-1 14-2a13 13 0 0 0 3-1l-2-3-2-3a16 16 0 0 1-2-3l-1-2a62 62 0 0 1-3-6 4 4 0 0 1 0-2l7-20a105 105 0 0 0 5-22l3-21 1-15a144 144 0 0 0 1-22l-1-20-1-20-5-27a155 155 0 0 0-7-22 257 257 0 0 0-10-24 378 378 0 0 0-24-36c-5-7-12-13-17-21a53 53 0 0 0-11-12l-22-15a193 193 0 0 0-16-11l-15-7a73 73 0 0 0-17-6 44 44 0 0 1-4-2l-12-4-18-5a164 164 0 0 0-18-4l-21-2-13-1-20-1a97 97 0 0 0-9 0zm14 20 7 1h8l18 2 16 3a220 220 0 0 1 33 8l18 8a377 377 0 0 1 41 19 40 40 0 0 1 9 9l13 14 15 17 13 16a55 55 0 0 1 3 5l9 12a71 71 0 0 1 4 11l5 16 3 12 1 8 1 11 1 2v2a2 2 0 0 0 0 1 7 7 0 0 0 1-1v1a8 8 0 0 0 0 2 4 4 0 0 0 0 1 14 14 0 0 1 2-1 68 68 0 0 1 1 18 40 40 0 0 1-1 16v-5a9 9 0 0 1-2-1v2l-1-1 1 7 3-1c-3 3-2 6-1 8 1 1 2 3 1 4v2h1v1h-2l-2-2v8l2 4a5 5 0 0 0 1-1 20 20 0 0 1-1 3 41 41 0 0 0-1 5l1 1a51 51 0 0 0-2 13v10a81 81 0 0 1-2 9l-1 1a14 14 0 0 0 0-5l-3-1a58 58 0 0 0 2 8l-3-1v7l-2 5 1 3h1l2-10 1 1a23 23 0 0 0-1 6v3a17 17 0 0 0 0 4 10 10 0 0 1-1-2h-1c-1 1 1 2 1 3h-1l-6-8-13-20a41 41 0 0 1-3-5 241 241 0 0 0-18-26l-13-20-13-19-5-6-13-21-12-17-4-6a3 3 0 0 1 0-2l-1-11v-13l1-3h-15a8 8 0 0 1-7-4 284 284 0 0 1-17-23l-16-23-14-18-15-20-19-25-9-11zm221 208zM246 31l1 1 14 17 10 13 12 16 13 20 19 28 14 21h-33l-33 2a487 487 0 0 1-41 2l-15 1-18 1h-33l16-22 5-7a11 11 0 0 1 2-2 16 16 0 0 0 2-3 35 35 0 0 0 2-4 2 2 0 0 1 0-1c3 1 3-1 4-2l4-5a35 35 0 0 0 3-4v-2h-1l2-2 3-4a74 74 0 0 1 7-8l-1 2 6-8-3 3v-1l5-7a26 26 0 0 1 1 3l2-4-1 1h-1l3-5 10-14 4-5a181 181 0 0 1 12-17 28 28 0 0 1 3-4h1zm-47 67-3 2h-1l1 3 3-5zm144 70a3 3 0 0 1 3 2l5 8a3 3 0 0 1 0 1v12l1 11v32h-1l-2-8a58 58 0 0 0-7-14l-9-15a28 28 0 0 0-3-3 60 60 0 0 0-12-11 140 140 0 0 0-22-11 50 50 0 0 1-6-3h34l18-1a3 3 0 0 1 1 0zm-129 5a37 37 0 0 1 4 0 58 58 0 0 0-8 4l-9 7a52 52 0 0 0-9 8l-10 11a107 107 0 0 0-7 8l-8 12 1-48 23-2h19a37 37 0 0 1 4 0zm43 8 15 1a26 26 0 0 1 7 1 61 61 0 0 1 7 4 85 85 0 0 1 9 5l14 9a39 39 0 0 1 12 12 53 53 0 0 1 10 16l2 12a14 14 0 0 1 1 6l-2 13a18 18 0 0 0 0 5 32 32 0 0 1-4 15l-3 5a5 5 0 0 0 2 0l1-3v1l-2 7-7 16a83 83 0 0 1-5 8l-5 7a24 24 0 0 1-5 5 132 132 0 0 1-14 10 36 36 0 0 1-10 4v-1a139 139 0 0 1-17 4 105 105 0 0 1-15 0h-13a45 45 0 0 1-15-3l-12-6a33 33 0 0 1-11-8 66 66 0 0 0-8-8 8 8 0 0 0 3 5c-1 1-2 1-4-2a10 10 0 0 1-1 1l2-4-3-4-4-7v-1a37 37 0 0 1-3-3 69 69 0 0 0-4-7v2l-4-8 3 11h-1a10 10 0 0 1-1-2l-2-1a2 2 0 0 0-1 2l4 9a21 21 0 0 0 1 3l1 1a29 29 0 0 0 2 4l5 6 4 6 1 1c1 2 4 4 6 3 0 4 5 6 6 9l-5-2v1a66 66 0 0 1 6 3 49 49 0 0 1 5 3 16 16 0 0 0 7 4 2 2 0 0 0 0-1l13 7-56 1v-10a30 30 0 0 0 0-4c0-8 0-15-2-23a167 167 0 0 1 0-25l-1-13v-18a6 6 0 0 1 1-2h1v1l2 1 3-2a17 17 0 0 0 1-7 6 6 0 0 1 1-3 16 16 0 0 0 1-2l-2-2c0-1 0-4 3-5v-1l1-5a5 5 0 0 0 1 1v-2c2 0 1-3 2-4v-2c3 0 2-3 4-4l1-2c2 3-1 4-1 6 3-2 4-6 2-7a10 10 0 0 0 2-2l6-6c1-2 1-4 3-5a10 10 0 0 1 3-2 21 21 0 0 0 8-7 9 9 0 0 1 1-1l2-1-1-1 3-2-1 3h1l5-3-1-1-4 2 1-1a63 63 0 0 1 7-4l18-8a8 8 0 0 1 3-1 4 4 0 0 0 2 0l8-2a14 14 0 0 1 4-1zm-6 3-5 3-1 1 4-2a6 6 0 0 1 2 1 13 13 0 0 1 0-3zm123 29a53 53 0 0 1 5 6 179 179 0 0 0 14 20l11 18 14 21 10 16 11 13 8 12 11 14 5 7a21 21 0 0 0 4 4 1 1 0 0 1-1-1 16 16 0 0 0 1 2c2 1 2 2 1 4v1a11 11 0 0 1-1-2c-1 3-3 1-4 1l-28 1h-27l-9 1h-21l-2-1a11 11 0 0 1-1 1l-1-1a12 12 0 0 1 0 2h-1a50 50 0 0 1-1-7l1-16v-7l1 2a15 15 0 0 1 2-2 3 3 0 0 1-1-1h1a7 7 0 0 0 0-2 18 18 0 0 0 0-3l1 5h1c-1-1 1-2-1-4v-1a36 36 0 0 1-1-4 4 4 0 0 1 1 0 16 16 0 0 0-1-1v-5a21 21 0 0 0 0-4c0-2 1-4-2-5a5 5 0 0 0 1 1 5 5 0 0 0-1 1c-3-2-1-5-2-8a28 28 0 0 1 3 1l-1-4h-1v-11h2v-1l-2-2a6 6 0 0 1 0-5v-12c1 2-1 4 1 5v-9l-1 1zM86 227a192 192 0 0 0-6 8l2 1 6-8-2-1zm-11 9-5 5h2l4-5a2 2 0 0 1-1 0zm3 2-3 2a1 1 0 0 1 1 1c-2 0-2 1-3 3l-2 1v2a3 3 0 0 1-1 1l-3 3a5 5 0 0 0-1 1l5-5v1l2-3-1 4-1 1-2 1-3 2-5 5-4 6c2-1 3 0 3 2 2 0 2-2 3-3v-1l5-4a2 2 0 0 0 1-2h-2l6-7 1-1c0-2 1-3 2-3a10 10 0 0 1-5 7 3 3 0 0 0 2 1l1-2 4-6 2-3h-1l-2 3a2 2 0 0 1-1-2 7 7 0 0 1 1-1 4 4 0 0 0 1 0l1-3zm1 4v-1zm270 52a388 388 0 0 0 5 58l-59 2a69 69 0 0 0 20-14 18 18 0 0 1 3-2 60 60 0 0 0 17-17 237 237 0 0 0 13-25 19 19 0 0 1 1-2zm-324 4a4 4 0 0 0-1 1l2 5a5 5 0 0 1 1-1l-2-5zm452 7v1zm-457 0v2l1 2v-1zm9 4a6 6 0 0 0-1 0l4 9a14 14 0 0 0 1 0 60 60 0 0 0-4-9zm-3 7-1 1h-3l1 1h4l-1-2zm-4 1zm161 5 6 8h-1a4 4 0 0 1-1 0l-4-6a2 2 0 0 1 0-2zm191 10v6l2-1-2-1c4-2 0-3 0-4zM76 428l5 6h2l1 3-3-3a8 8 0 0 1-2-1l-4-5zm333 33a29 29 0 0 0-3 0v1l-1 1v1a40 40 0 0 1 4-3zm-8 4-6 4a16 16 0 0 0 6-3zm-18 8c1 2 2 2 4 1a28 28 0 0 1-4-1zm-67 24c-8 2-10 3-11 2zm-11 2v1a11 11 0 0 0-3 0l-7 1h-3c0 3 3 1 4 2l-11 1 4-1a51 51 0 0 0-6-1l-1 1a9 9 0 0 1-2 1h-10v-1zm-36 4v1a91 91 0 0 1-10 1v-1z" />
</symbol>
<symbol id="rollup" viewBox="0 0 512 512">
  <defs>
    <linearGradient id="a" x1="109" x2="213" y1="154" y2="172">
      <stop offset="0%" stop-color="#FF6533" />
      <stop offset="16%" stop-color="#FF5633" />
      <stop offset="43%" stop-color="#FF4333" />
      <stop offset="71%" stop-color="#FF3733" />
      <stop offset="100%" stop-color="#F33" />
    </linearGradient>
    <linearGradient id="b" x1="93" x2="280" y1="128" y2="236">
      <stop offset="0%" stop-color="#BF3338" />
      <stop offset="100%" stop-color="#F33" />
    </linearGradient>
    <linearGradient id="c" x1="104" x2="132" y1="142" y2="162">
      <stop offset="0%" stop-color="#FF6533" />
      <stop offset="16%" stop-color="#FF5633" />
      <stop offset="43%" stop-color="#FF4333" />
      <stop offset="71%" stop-color="#FF3733" />
      <stop offset="100%" stop-color="#F33" />
    </linearGradient>
    <linearGradient id="d" x1="151" x2="146" y1="226" y2="222">
      <stop offset="0%" stop-color="#FF6533" />
      <stop offset="100%" stop-color="#F33" />
    </linearGradient>
    <linearGradient id="e" x1="110" x2="148" y1="151" y2="171">
      <stop offset="0%" stop-color="#FBB040" />
      <stop offset="100%" stop-color="#FB8840" />
    </linearGradient>
    <linearGradient id="f" x1="1" x2="0" y1="0" y2="1">
      <stop offset="0%" stop-color="#FFF" />
      <stop offset="100%" stop-color="#FFF" stop-opacity="0" />
    </linearGradient>
  </defs>
  <path fill="url(#a)"
    d="M413 188c0-25-6-47-17-67-30-31-94-38-110 0-17 38 27 81 46 77 25-4-4-60-4-60 38 71 29 49-39 114S152 454 142 460h-1 266c4 0 7-5 5-9l-69-137a6 6 0 0 1 2-9 135 135 0 0 0 68-117z" />
  <path fill="url(#b)"
    d="M413 188c0-25-6-47-17-67-30-31-94-38-110 0-17 38 27 81 46 77 25-4-4-60-4-60 38 71 29 49-39 114S152 454 142 460h-1 266c4 0 7-5 5-9l-69-137a6 6 0 0 1 2-9 135 135 0 0 0 68-117z" />
  <path fill="url(#c)" d="M142 460c10-6 79-143 147-208s77-43 39-114c0 0-143 201-195 301" />
  <path fill="url(#d)"
    d="M162 279C259 101 272 83 322 83c27 0 54 12 71 33a135 135 0 0 0-113-64H115a6 6 0 0 0-6 6v332c10-25 26-61 53-111z" />
  <path fill="url(#e)"
    d="M289 252c-68 65-137 202-147 208-10 5-27 6-36-4-10-11-25-28 56-177C259 101 272 83 322 83c27 0 54 12 71 33a268 268 0 0 1 3 5c-30-31-94-38-110 0-17 38 27 81 46 77 25-4-4-60-4-60 38 71 29 49-39 114z" />
  <path fill="url(#f)" opacity=".3"
    d="M170 287c97-178 110-196 160-196 22 0 44 8 60 23-17-20-43-31-68-31-50 0-63 18-160 196-81 149-66 166-56 177 1 1 3 3 4 4-8-12-12-40 59-172z" />
</symbol>
<symbol id="terminal" viewBox="0 0 24 24">
  <path fill="var(--icon-color, transparent)" d="M.33 1.76h23.5v20.18H.34z" />
  <path d="M.96 2.5v18.68h22.22V2.5z" />
  <path fill="#fff" d="m7.12 6.8 4.09 4.1-4.1 4.09-1.25-1.27 2.82-2.83-2.82-2.83zm4.62 8.52v1.45h5.68v-1.45z" />
</symbol>
<symbol id="vitejs" viewBox="0 0 512 512">
  <path fill="url(#a)"
    d="M503 80 269 497c-5 9-17 9-22 0L9 80c-6-10 2-21 13-19l234 42a13 13 0 0 0 4 0l229-42c11-2 19 9 14 19z" />
  <path fill="url(#b)"
    d="M367 6 194 40a6 6 0 0 0-5 6l-10 179c-1 5 3 8 7 7l48-11c5-1 9 3 8 7l-14 70c-1 5 3 9 8 8l30-9c4-2 9 2 8 7l-23 110c-1 7 8 10 12 5l2-4 141-281c2-5-2-10-7-10l-49 10c-5 1-9-3-8-8l33-112c1-5-3-9-8-8z" />
  <defs>
    <linearGradient id="a" x1="6" x2="235" y1="33" y2="344" gradientUnits="userSpaceOnUse">
      <stop stop-color="#41D1FF" />
      <stop offset="1" stop-color="#BD34FE" />
    </linearGradient>
    <linearGradient id="b" x1="195" x2="236" y1="9" y2="293" gradientUnits="userSpaceOnUse">
      <stop stop-color="#FFEA83" />
      <stop offset="0" stop-color="#FFDD35" />
      <stop offset="1" stop-color="#FFA800" />
    </linearGradient>
  </defs>
</symbol>

<symbol id="webcomponents" viewBox="0 0 128 128">
  <path fill="var(--bgcolor, #ffffff)"
    d="m31 12-1 1L2 63l29 51h67l15-26v-2l14-23-15-24v-2L98 12H31zm21 30h21l13 21-13 21H52L40 63z" />
  <path fill="#166da5" d="m122 63-12 21-18-21 18-21z" />
  <path fill="#8fdb69" d="M108 88 89 65 78 84l17 26z" />
  <path fill="#166da5" d="M108 38 89 61 78 42l17-26z" />
  <path fill="#000000" d="M63 110 35 63l28-47H33L6 63l27 47z" />
  <path fill="#287bbe" d="m50 38 13-22h32l13 22zm28 4h32l11 19H89z" />
  <path fill="#ddf021" d="m50 88 13 22h32l13-22zm28-4h32l11-19H89z" />
</symbol>
<symbol id="webpack" viewBox="0 0 210 297">
  <path d="m105 33 103 58v116l-103 58L3 207V91z" fill="#fff" />
  <path
    d="m189 203-80 45v-35l50-28zm6-5v-96l-30 17v62zm-174 5 81 45v-35l-51-28zm-6-5v-96l30 17v62zm4-102 83-47v35l-54 29zm172 0-82-47v35l53 29z"
    fill="#8ed6fb" />
  <path d="m102 205-50-28v-54l50 29zm7 0 49-27v-55l-49 29zm-54-88 50-27 50 27-50 29z" fill="#1c78c0" />
</symbol>
</svg>
